<svg xmlns="http://www.w3.org/2000/svg" viewBox="0 0 64 64"><path d="M17.8 22.6l7.3-8.4m12.2 6.7l7.3-8.4m4.2 11.9l7.3-8.4M2.8 25l7.3-8.4m10.7-7.5L28.1.8m7.7 9.8l7.3-8.3m9.2 8.5l7.3-8.3M4.8 12.7l7.3-8.3m9.7 28l7.3-8.3m3.5 7.9l7.3-8.3m19.6 3.8l7.3-8.3M4.8 36l7.3-8.3M48.4 7l7.3-8.3M22.7 26.2l7.3-8.4m11.7 7.1l7.3-8.4m4.8 8.8l7.3-8.4m-49.8 3.9l7.3-8.4m7.1.3L33 4.3m3.2 11.5l7.3-8.3m10.2 8.2L61 7.4M15.5 5.6l7.3-8.3m-1.7 42.6l7.3-8.3m10.5 3.7l7.3-8.3m5.2 12.8l7.3-8.3m-48.5 3.3l7.3-8.3M16 56l7.3-8.4m12.1 6.7l7.3-8.4M47 57.8l7.3-8.4M1 58.4L8.3 50m11.4-5l7.3-8.3m6.9 7.2l7.3-8.3m9.3 8.6l7.3-8.3M3 46.1l7.3-8.3m9.7 28l7.3-8.3m3.4 7.8L38 57m19.7 3.8l7.3-8.3M3 69.4l7.3-8.3m36.2-20.7l7.3-8.3M20.9 59.5l7.3-8.4m11.7 7.2l7.3-8.4m4.8 8.8l7.3-8.4M9.5 54.2l7.3-8.4m7.1.2l7.3-8.3m3.1 11.4l7.3-8.3m10.3 8.3l7.3-8.3m-45.6-1.9l7.3-8.3m-1.6 42.6l7.3-8.3m10.5 3.8l7.3-8.3m5.2 12.8l7.3-8.3M8.4 68.1l7.3-8.3" fill="none" stroke="#fff" stroke-miterlimit="10"/></svg>