<svg version="1.1" id="Layer_1" xmlns="http://www.w3.org/2000/svg" xmlns:xlink="http://www.w3.org/1999/xlink" x="0px" y="0px"
	 width="64px" height="64px" viewBox="0 0 64 64" style="enable-background:new 0 0 64 64;" xml:space="preserve">
<style type="text/css">
	.st0{fill:none;stroke:#FFFFFF;stroke-miterlimit:10;}
</style>
<g transform="translate(-539.18 -568.86)">
	<path class="st0" d="M561.6,624c21.4,0,33.2-17.8,33.2-33.2c0-0.5,0-1,0-1.5c2.3-1.6,4.3-3.7,5.8-6c-2.1,0.9-4.3,1.6-6.7,1.8
		c2.4-1.4,4.3-3.7,5.1-6.4c-2.3,1.3-4.7,2.3-7.4,2.8c-2.1-2.3-5.2-3.7-8.5-3.7c-6.4,0-11.7,5.2-11.7,11.7c0,0.9,0.1,1.8,0.3,2.7
		c-9.7-0.5-18.3-5.1-24-12.2c-1,1.7-1.6,3.7-1.6,5.9c0,4,2.1,7.6,5.2,9.7c-1.9-0.1-3.7-0.6-5.3-1.5c0,0,0,0.1,0,0.1
		c0,5.6,4,10.4,9.4,11.4c-1,0.3-2,0.4-3.1,0.4c-0.8,0-1.5-0.1-2.2-0.2c1.5,4.6,5.8,8,10.9,8.1c-4,3.1-9,5-14.5,5
		c-0.9,0-1.9-0.1-2.8-0.2C548.9,622.1,555.1,624,561.6,624"/>
</g>
</svg>
